<svg version="1" xmlns="http://www.w3.org/2000/svg" width="682.667" height="682.667" viewBox="0 0 512.000000 512.000000"><path d="M40.4 1.5C21.3 5.6 5.5 21.6 1.4 40.9c-2.1 9.9-2.1 420.3 0 430.2 4.2 19.5 20 35.3 39.5 39.5 9.9 2.1 420.3 2.1 430.2 0 19.5-4.2 35.3-20 39.5-39.5 2.1-9.9 2.1-420.3 0-430.2-4.2-19.5-20-35.3-39.5-39.5-9.5-2-421.4-1.9-430.7.1zm152.1 143c11 3.1 23.6 10.2 33 18.7l4.8 4.4-7.3 8.2c-4 4.5-7.6 8.2-8.1 8.2-.4 0-2-1.1-3.6-2.4-5.2-4.3-14.4-9.7-21.1-12.4-5.9-2.3-8.2-2.6-19.2-2.6-14.7-.1-18.7 1.2-26.9 8.9-6.2 5.8-9.1 12.8-9.1 21.9 0 10.2 2.3 16.1 8.8 22.6 6.5 6.4 14.8 10.8 32.2 17.1 38.2 13.7 54.2 28.2 58.6 52.9 6.1 34.1-9.3 63.2-39.6 75.3-3.6 1.4-9.4 3.1-13 3.8-9.1 1.7-29 1.4-37.8-.5-15.7-3.4-31.2-11.4-42.5-21.8l-5.7-5.3 7.9-8.5 7.8-8.5 6.1 4.7c21.6 17 48.8 21.7 68.2 11.8 13.4-6.8 21.1-24.9 18.2-42.2-3-17.6-11.4-24.8-42.2-36.6-8.5-3.2-18-7.2-21-8.7-8.4-4.2-19.7-12.3-24.1-17.3-15-17.1-17-45.4-4.7-66.3 1.5-2.4 5.2-7 8.5-10.2 6.8-6.8 20.1-13.9 30.3-16.2 8.6-1.9 33-1.3 41.5 1zm156.5 3c18 2.7 29.9 7.8 39.8 17 11.2 10.4 16.5 24.4 16.4 44-.2 26.3-11.2 44.6-33.3 55.3l-7.7 3.7 25.9 48.9c14.2 26.9 25.9 49.3 25.9 49.8 0 1-32.1 0-33.1-1.1-.4-.3-11.1-21.2-23.9-46.4L335.8 273H305v94h-30V146h32.3c23.1 0 34.9.4 41.7 1.5z"/><path d="M305 209.7v40.6l17.3-.6c9.4-.3 19.7-1.1 22.7-1.8 12.8-2.7 21.9-10 26.2-20.8 1.8-4.6 2.2-7.8 2.2-17.6.1-13.5-.9-18.1-5.7-25.1-7.6-11.4-20.2-15.4-47.9-15.4H305v40.7z"/></svg>