<svg version="1" xmlns="http://www.w3.org/2000/svg" width="682.667" height="682.667" viewBox="0 0 512.000000 512.000000"><path d="M41.5 1c-2.2.5-6 1.6-8.5 2.5C18 8.8 4.5 24.7 1.1 40.8c-1.6 7.5-1.6 422.9 0 430.4C4 484.9 15.9 500.5 28 506.3c12.6 6.1-2.3 5.7 228 5.7s215.4.4 228-5.7c12.1-5.8 24-21.4 26.9-35.1 1.6-7.5 1.6-422.9 0-430.4C508 27.1 496.1 11.5 484 5.7 471.3-.4 486.3 0 256 .1 140.2.2 43.7.6 41.5 1zM193 145c9.9 2.8 21 8.8 29.9 16.1l7.2 6-3.1 3.7c-1.6 2-5 5.9-7.4 8.6l-4.4 5-5.8-4.4c-7.9-6-18.9-11.4-26.3-13-8.7-1.8-23.3-.9-29.4 1.8-7.2 3.2-11.9 7.4-15.3 13.4-2.7 4.9-2.9 6-2.9 15.8 0 8.8.3 11.1 2.2 14.5 5.1 9.7 16.7 17 40.3 25.5 33.9 12.3 49.9 26.1 55.7 48 2.6 10.1 2.4 28.4-.6 38-6.7 21.8-21.2 36-44.1 43.2-6.6 2-9.5 2.3-24.5 2.3-13.3 0-18.5-.4-24-1.9-13.7-3.6-29.6-12.3-39.7-21.7l-4.7-4.4 7.8-8.3 7.7-8.4 7.5 5.6c9.1 6.9 19.3 12 27.9 14 8.3 2 24.1 2 30.6.1 11.5-3.4 20.8-11.7 24.8-22.2 2.6-7 3.2-19.4 1.2-27-3.8-15.1-13-22.5-41.2-33.1-39.1-14.8-53.6-28.2-57.5-53.4-2.1-13.3 1.1-28.9 8-39.6 8.4-13.2 24.2-23 41.9-26.2 8.3-1.5 29.8-.4 38.2 2zm151.7 2.1c19.8 2.2 34.8 8.3 44.8 18.4 10.9 10.9 15.5 23.6 15.5 42.4 0 19.4-4.8 32.1-16.4 43.7-5.3 5.3-9.3 8.1-15.8 11.4l-8.7 4.3 2.1 4.1c1.1 2.2 11.9 22.5 23.8 45.1 11.9 22.5 22.7 42.9 23.9 45.2l2.1 4.3h-32.9L360 320.2c-12.7-25.1-23.6-46.2-24.3-46.8-.8-.6-6.5-.9-15.9-.6l-14.8.4V366h-30V146h30c16.6 0 34.4.5 39.7 1.1z"/><path d="M305 209.5V250h14.3c23.7-.1 34.6-2.6 43.1-10.2 8.1-7 11.6-16.5 11.6-31.4 0-22-9-33.5-29.5-37.9-4.5-.9-12.8-1.5-23.2-1.5H305v40.5z"/></svg>